<?xml version="1.0" encoding="UTF-8" standalone="no"?>
<svg width="1219" xmlns="http://www.w3.org/2000/svg" height="702">
 <g stroke-width=".5" fill-rule="evenodd">
  <path d="m797.8 164.8l0.2-0.3 1-0.3 1-0.2 0.2 1 0.3 1 0.5 1 0.5 1 0.5 1 0.5 1 0.3 1.5q0.2 1.5 2 2.5 1.7 1 2 7.5l0.2 6.5 2.5-1q2.5-1 3.7-4.5 1.3-3.5 1.8-4.5l0.5-1 0.3-0.2 0.2-0.3 0.2-0.3 0.3-0.2 0.3-0.2 0.2-0.3 0.2-0.3 0.3-0.2 0.3 0.2 0.2 0.3 0.2 0.3 0.3 0.2 0.3 0.2 0.2 0.3 0.2 0.3 0.3 0.2 0.3 0.2 0.2 0.3 0.2 0.3 0.3 0.2 0.5 1 0.5 1 0.3 0.2 0.2 0.3 1 0.5 1 0.5 0.2 0.3 0.3 0.2-0.3 110.5q-0.2 110.5 1.3 110.5t1.7-4q0.3-4 5-7.2 4.8-3.3 20.3-3.6 15.5-0.2 16-2 0.5-1.7 3-1.2t3 1.8q0.5 1.2 24.5 1.2h24v-137h19v-6q0-6 3-6h3l0.2 1.5q0.3 1.5 0.8 0.5t-0.2 5q-0.8 6 0.2 5.8 1-0.3 9-0.6l8-0.2v14h23l-0.5 19.2q-0.5 19.3 4.5 19.6l5 0.2 0.5 20.2q0.5 20.3 3.7 20.6 3.3 0.2 4 5.4 0.8 5.3 5.3 6.3t5-18.7q0.5-19.8-1.5-20.3t-2-8.5 2-7.2q2 0.7 15.2 0 13.3-0.8 13-5.3-0.2-4.5 1.3-5.3 1.5-0.7 11-0.2t13.7 2.2q4.3 1.8 4 4.3-0.2 2.5 5 3 5.3 0.5 5.6 1.5 0.2 1 9.4 6.5 9.3 5.5 9.6 33 0.2 27.5 5.2 26.5t5.2 5q0.3 6 0.6 5.8 0.2-0.3 9.2-0.6l9-0.2-0.5 24.2q-0.5 24.3 0.3 24 0.7-0.2 1.4-3.4 0.8-3.3 6.3-4 5.5-0.8 5.5-1.8t2-1 2 1 2 1 1.8 18q-0.3 18 0 21.5l0.2 3.5 3.8-0.5q3.7-0.5 4.4-3.3 0.8-2.7 5-2.4 4.3 0.2 4.6 2.7 0.2 2.5 2.2 1.7 2-0.7 4.5-1.2l2.5-0.5 1-0.3q1-0.2 1.2-7.2 0.3-7 2.8-9t2.8-1q0.2 1 1.7 1t2-2.2q0.5-2.3 5.5-2.8t8-0.8q3-0.2 3 2.8t4 3.2q4 0.3 5.5 0.6l1.5 0.2v260h-1219v-226h7l-0.2-1.5-0.3-1.5-0.3-11.5-0.2-11.5h8l0.5 2.8q0.5 2.7 2 2.4 1.5-0.2 1.7 2.3l0.3 2.5 0.3-0.2 0.2-0.3 1.5-0.3 1.5-0.2 0.2-18.5 0.3-18.5 0.3-0.2 0.2-0.3 19.5-0.3 19.5-0.2 0.2-12.5q0.3-12.5 1.6-13 1.2-0.5 4.7-5.3 3.5-4.7 23.5-5 20-0.2 20.2 0.8 0.3 1 1.6 1.5 1.2 0.5 1.4 1.5l0.3 1 0.3 0.2 0.2 0.3 1 0.5 1 0.5 0.2 0.3 0.3 0.2v-6.5q0-6.5-0.5-7t4.2-2q4.8-1.5 5.6-5.5 0.7-4 2.4-4.8 1.8-0.7 2.3-2 0.5-1.2 3.5-1 3 0.3 6.5 0.3t8.5 0.7q5 0.8 5-1.2t3-3 3.8-7.5q0.7-6.5 3.2-8t2.5-4 0.3-3.3q0.2-0.7 0.7 0 0.5 0.8 2.5 0 2-0.7 9.8-1 7.7-0.2 17 1.3 9.2 1.5 9.2 5t3.5 2.7l3.5-0.7 0.2-0.3 0.3-0.2 0.3-0.2 0.2-0.3 2.5-0.3 2.5-0.2 0.8-9.5q0.7-9.5 2-12 1.2-2.5 11.7-2.5t11 3 1.5 3 1 7.5v7.5h34l-0.2 44.5q-0.3 44.5-0.6 49l-0.2 4.5h4l-0.2-5q-0.3-5-1-63-0.8-58 9.7-60.5t10.5-3.5 5-0.8q5 0.3 7.2-4l2.3-4.2 0.3-0.2 0.2-0.3 0.2-0.3 0.3-0.2 0.5 1 0.5 1 0.3 0.2 0.2 0.3 0.2 0.3 0.3 0.2 0.5 1.5 0.5 1.5 0.3 1 0.2 1h1q1 0 1 9.5v9.5l10.8 0.5q10.7 0.5 11 8.5l0.2 8h8v-57h16v-6q0-6 1-6.2 1-0.3 7.5-11 6.5-10.8 7.5-10.8t6.8-9.5q5.7-9.5 7.2-15.5t2-20.5-0.2-15.3l-0.8-0.7 0.2-0.3 0.3-0.2 0.5-2 0.5-2 0.3-0.2 0.2-0.3 3-0.3 3-0.2v2h-2l1.2 21q1.3 21 9.8 32.5t8.8 12.5q0.2 1 1.2 1t1.5 1.2q0.5 1.3 0.7 1.6l0.3 0.2 0.5 1 0.5 1 0.3 0.2 0.2 0.3 0.2 0.3 0.3 0.2 0.3 0.2 0.2 0.3 0.2 0.3 0.3 0.2 0.5 1 0.5 1 0.3 0.2 0.2 0.3 0.2 0.3 0.3 0.2 0.3-22.5q0.2-22.5 1.2-22.5t2.5-3.2q1.5-3.3 7.5-3 6 0.2 6.5-1 0.5-1.3 1.5-1.6 1-0.2 1-1.2t1-1 1 1 29.5 4.8q29.5 3.7 30 3.2t0.7-0.8l0.3-0.2 0.3 0.2 0.2 0.3 0.2 0.3 0.3 0.2v1q0 1 0 54v53l-0.3 0.2-0.2 0.3 4.2-0.3q4.3-0.2 4.6-3.2 0.2-3 6.2-3t6 3 7 3.8q7 0.7 13 3.4 6 2.8 6 15.8v13h29v-23q0-23 2.2-24 2.3-1 2.6-3 0.2-2 9.7-2.5t9.5-3.7q0-3.3 3.5-5 3.5-1.8 3.5-2.8t2-1 2 1 6.2 1.5q6.3 0.5 6.6 4l0.2 3.5 1 0.2 1 0.3 0.2 0.3 0.3 0.2 0.3-0.2 0.2-0.3 1.5-0.3 1.5-0.2v-16q0-16 1-16t2-9.5 4-11.3q3-1.7 8.5-3 5.5-1.2 5.5-0.2v1h2l-0.2-3q-0.3-3-0.6-4.5l-0.2-1.5h2.2q2.3 0 10.6 0 8.2 0 8.2 1t4 2.2q4 1.3 5 1l1-0.2v1q0 1-1 1t-0.5 3.2q0.5 3.3 4 4 3.5 0.8 3.5 2.3t1 1.5 2.5 5.2q1.5 5.3 1.7 5.6 0.3 0.2 0.6 62.7l0.2 62.5 1.5-0.2 1.5-0.3 0.2-0.3 0.3-0.2 0.3-104.5q0.2-104.5 1.2-104.7 1-0.3 2.8-3l1.7-2.8 0.5-1 0.5-1 0.5-1 0.5-1 0.3-0.2 0.2-0.3h2l0.2 0.3 0.3 0.2 0.5 1 0.5 1 0.5 1 0.5 1 0.3 1.5q0.2 1.5 1.2 1.5t1.2 8.5l0.3 8.5 0.3 0.2 0.2 0.3 0.2 0.3 0.3 0.2 0.3-0.2 0.2-0.3 4-0.3 4-0.2 0.5-4.8q0.5-4.7 1.5-5 1-0.2 1.2-1.2l0.3-1 0.5-1 0.5-1 0.3-0.2 0.2-0.3h2l0.2 0.3 0.3 0.2 0.3 1q0.2 1 1.2 1t1.8 1.5q0.7 1.5 1 3.5l0.2 2 1.8-1.5q1.7-1.5 2-2.5 0.2-1 1.7-1h1.5v2h2l0.5 4q0.5 4 1.5 4t1 1.5 10 1.7q10 0.3 10.2 0.6l0.3 0.2 0.3-0.2 0.2-0.3 0.2-0.3 0.3-0.2 0.5-10q0.5-10 2.5-13.5l2-3.5 0.5-1 0.5-1 0.5-1 0.5-1 0.3-0.2zm-507.8 459.7v-14.5l2.2 0.5q2.3 0.5 2.6 5 0.2 4.5 5.2 4t5 0.5 1.2 1.5q1.3 0.5 1.3 7t-1.7 8.3q-1.8 1.7-5.3 1.7h-3.5l-0.2-0.3-0.3-0.2-0.3-0.2-0.2-0.3-0.2-0.3-0.3-0.2-0.3 0.2-0.2 0.3-0.2 0.3-0.3 0.2-0.3 0.2-0.2 0.3-2 0.3-2 0.2v-14.5zm-64.5-11.5q1.5-0.5 5.5 0.2 4 0.8 4.8 3.3 0.7 2.5 1.2 8.5t-0.8 9q-1.2 3-2.2 3.2-1 0.3-5 0.8t-6-0.8q-2-1.2-2.8-4.7-0.7-3.5-0.2-9t2.2-7.7q1.8-2.3 3.3-2.8z" stroke="#000"/>
  <path d="m0 238v-238h1219v442l-1.5-0.2q-1.5-0.3-5.5-0.6-4-0.2-4-3.2t-3-2.8q-3 0.3-8 0.8t-5.5 2.8q-0.5 2.2-2 2.2t-1.7-1q-0.3-1-2.8 1t-2.8 9q-0.2 7-1.2 7.2l-1 0.3-2.5 0.5q-2.5 0.5-4.5 1.2-2 0.8-2.2-1.7-0.3-2.5-4.6-2.7-4.2-0.3-5 2.4-0.7 2.8-4.4 3.3l-3.8 0.5-0.2-3.5q-0.3-3.5 0-21.5 0.2-18-1.8-18t-2-1-2-1-2 1-5.5 1.8q-5.5 0.7-6.3 4-0.7 3.2-1.4 3.4-0.8 0.3-0.3-24l0.5-24.2-9 0.2q-9 0.3-9.2 0.6-0.3 0.2-0.6-5.8-0.2-6-5.2-5t-5.2-26.5q-0.3-27.5-9.6-33-9.2-5.5-9.4-6.5-0.3-1-5.6-1.5-5.2-0.5-5-3 0.3-2.5-4-4.3-4.2-1.7-13.7-2.2t-11 0.2q-1.5 0.8-1.3 5.3 0.3 4.5-12.7 5t-15.3 1q-2.2 0.5-2.2 7.5t2 7.5 1.5 20.3q-0.5 19.7-5 18.7t-5.3-6.3q-0.7-5.2-4-5.4-3.2-0.3-3.7-20.6l-0.5-20.2-5-0.2q-5-0.3-4.5-19.6l0.5-19.2h-23v-14l-8 0.2q-8 0.3-9 0.6-1 0.2-0.2-5.8 0.7-6 0.2-5t-0.8-0.5l-0.2-1.5h-3q-3 0-3 6v6h-19v137h-24q-24 0-24.5-1.2-0.5-1.3-3-1.8t-3 1.2q-0.5 1.8-16 2-15.5 0.3-20.3 3.6-4.7 3.2-5 7.2-0.2 4-1.7 4t-1.3-110.5l0.3-110.5-0.3-0.2-0.2-0.3-1-0.5-1-0.5-0.2-0.3-0.3-0.2-0.5-1-0.5-1-0.3-0.2-0.2-0.3-0.2-0.3-0.3-0.2-0.3-0.2-0.2-0.3-0.2-0.3-0.3-0.2-0.3-0.2-0.2-0.3-0.2-0.3-0.3-0.2-0.3 0.2-0.2 0.3-0.2 0.3-0.3 0.2-0.3 0.2-0.2 0.3-0.2 0.3-0.3 0.2-0.5 1q-0.5 1-1 2t-1 4.5l-0.5 3.5 0.3 0.2 0.2 0.3h-3l-1.5-0.3-1.5-0.2-0.2-6.5q-0.3-6.5-2-7.5-1.8-1-2-2.5l-0.3-1.5-0.5-1-0.5-1-0.5-1-0.5-1-0.3-1-0.2-1-1 0.2-1 0.3-0.2 0.3-0.3 0.2-0.5 1-0.5 1-0.5 1-0.5 1-2 3.5q-2 3.5-2.5 13.5l-0.5 10-0.3 0.2-0.2 0.3-0.2 0.3-0.3 0.2-0.3-0.2q-0.2-0.3-10.2-0.6-10-0.2-10-1.7t-1-1.5-1.5-4l-0.5-4h-2v-2h-1.5q-1.5 0-1.7 1-0.3 1-2 2.5l-1.8 1.5-0.2-2q-0.3-2-1-3.5-0.8-1.5-1.8-1.5t-1.2-1l-0.3-1-0.3-0.2-0.2-0.3h-2l-0.2 0.3-0.3 0.2-0.5 1-0.5 1-0.3 1q-0.2 1-1.2 1.2-1 0.3-1.5 5l-0.5 4.8-4 0.2-4 0.3-0.2 0.3-0.3 0.2-0.3-0.2-0.2-0.3-0.2-0.3-0.3-0.2-0.3-8.5q-0.2-8.5-1.2-8.5t-1.2-1.5l-0.3-1.5-0.5-1-0.5-1-0.5-1-0.5-1-0.3-0.2-0.2-0.3h-2l-0.2 0.3-0.3 0.2-0.5 1-0.5 1-0.5 1-0.5 1-1.7 2.8q-1.8 2.7-2.8 3-1 0.2-1.2 104.7l-0.3 104.5-0.3 0.2-0.2 0.3-1.5 0.3-1.5 0.2-0.2-62.5q-0.3-62.5-0.6-62.7-0.2-0.3-1.7-5.6-1.5-5.2-2.5-5.2t-1-1.5-3.5-2.3q-3.5-0.7-4.3-4.4-0.7-3.8-4.4-5.3-3.8-1.5-3.8-2.5t-8.2-1q-8.3 0-10.6 0h-2.2l0.2 1.5q0.3 1.5 0.6 4.5l0.2 3h-2v-1q0-1-5.5 0.2-5.5 1.3-8.5 3-3 1.8-4 11.3t-2 9.5-1 16v16l-1.5 0.2-1.5 0.3-0.2 0.3-0.3 0.2-0.3-0.2-0.2-0.3-1-0.3-1-0.2-0.2-3.5q-0.3-3.5-6.6-4-6.2-0.5-6.2-1.5t-2-1-2 1-3.5 2.8q-3.5 1.7-3.5 5 0 3.2-9.5 3.7t-9.7 2.5q-0.3 2-2.6 3-2.2 1-2.2 24v23h-29v-13q0-13-6-15.8-6-2.7-13-3.4-7-0.8-7-3.8t-6-3-6.2 3q-0.3 3-4.6 3.2l-4.2 0.3 0.2-0.3 0.3-0.2 0.3-53q0.2-53-3.3-53.8-3.5-0.7-31-4.4-27.5-3.8-27.5-4.8t-1-1-1 1-1 1.2q-1 0.3-1.5 1.6-0.5 1.2-6.5 1-6-0.3-7.5 3-1.5 3.2-2.5 3.2t-1.2 22.5l-0.3 22.5-0.3-0.2-0.2-0.3-0.2-0.3-0.3-0.2-0.5-1-0.5-1-0.3-0.2-0.2-0.3-0.2-0.3-0.3-0.2-0.3-0.2-0.2-0.3-0.2-0.3-0.3-0.2-0.5-1-0.5-1-0.3-0.2q-0.2-0.3-0.7-1.6-0.5-1.2-1.5-1.2t-1.2-1q-0.3-1-8.8-12.5t-9.8-32.5l-1.2-21h2v-2l-3 0.2-3 0.3-0.2 0.3-0.3 0.2-0.5 2-0.5 2-0.3 0.2-0.2 0.3 0.8 0.7q0.7 0.8 0.2 15.3t-2 20.5-7.2 15.5q-5.8 9.5-6.8 9.5t-7.5 10.8q-6.5 10.7-7.5 11-1 0.2-1 6.2v6h-16v57h-8l-0.2-8q-0.3-8-11-8.5l-10.8-0.5v-9.5q0-9.5-1-9.5h-1l-0.2-1-0.3-1-0.5-1.5-0.5-1.5-0.3-0.2-0.2-0.3-0.2-0.3-0.3-0.2-0.5-1-0.5-1-0.3 0.2-0.2 0.3-0.2 0.3-0.3 0.2-2.3 4.2q-2.2 4.3-7.2 4-5-0.2-5 0.8t-10.5 3.5-9.7 60.5q0.7 58 1 63l0.2 5h-4l0.2-4.5q0.3-4.5 0.6-49l0.2-44.5h-34v-7.5q0-7.5-1-7.5t-1.5-3-11-3-11.7 2.5q-1.3 2.5-2 12l-0.8 9.5-2.5 0.2-2.5 0.3-0.2 0.3-0.3 0.2-0.3 0.2-0.2 0.3-3.5 0.7q-3.5 0.8-3.5-2.7t-9.2-5q-9.3-1.5-17-1.3-7.8 0.3-9.8 1-2 0.8-2.5 0-0.5-0.7-0.7 0-0.3 0.8-0.3 3.3t-2.5 4-3.2 8q-0.8 6.5-3.8 7.5t-3 3-5 1.2q-5-0.7-8.5-0.7t-6.5-0.3q-3-0.2-3.5 1-0.5 1.3-2.3 2-1.7 0.8-2.4 4.8-0.8 4-5.6 5.5-4.7 1.5-4.2 2t0.5 7v6.5l-0.3-0.2-0.2-0.3-1-0.5-1-0.5-0.2-0.3-0.3-0.2-0.3-1q-0.2-1-1.4-1.5-1.3-0.5-1.6-1.5-0.2-1-20.2-0.8-20 0.3-23.5 5-3.5 4.8-4.7 5.3-1.3 0.5-1.6 13l-0.2 12.5-19.5 0.2-19.5 0.3-0.2 0.3-0.3 0.2-0.3 18.5-0.2 18.5-1.5 0.2-1.5 0.3-0.2 0.3-0.3 0.2-0.3-2.5q-0.2-2.5-1.7-2.3-1.5 0.3-2-2.4l-0.5-2.8h-8l0.2 11.5 0.3 11.5 0.3 1.5 0.2 1.5h-7v-238zm520-24q0-1 1-1t1 1-1 1-1-1z" stroke="#fff" fill="#fff"/>
  <path d="m225.5 613q1.5-0.5 5.5 0.2 4 0.8 4.8 3.3 0.7 2.5 1.2 8.5t-0.8 9q-1.2 3-2.2 3.2-1 0.3-5 0.8t-6-0.8q-2-1.2-2.8-4.7-0.7-3.5-0.2-9t2.2-7.7q1.8-2.3 3.3-2.8z" stroke="#0e0e0e" fill="#0e0e0e"/>
  <path d="m290 624.5v-14.5l2.2 0.5q2.3 0.5 2.6 5 0.2 4.5 5.2 4t5 0.5 1.2 1.5q1.3 0.5 1.3 7t-1.7 8.3q-1.8 1.7-5.3 1.7h-3.5l-0.2-0.3-0.3-0.2-0.3-0.2-0.2-0.3-0.2-0.3-0.3-0.2-0.3 0.2-0.2 0.3-0.2 0.3-0.3 0.2-0.3 0.2-0.2 0.3-2 0.3-2 0.2v-14.5z" stroke="#0f0f0f" fill="#0f0f0f"/>
 </g>
</svg>
